<?xml version="1.0" encoding="utf-8"?>
<svg version="1.1" xmlns:xlink="http://www.w3.org/1999/xlink" width="60px" height="60px" xmlns="http://www.w3.org/2000/svg">
  <g transform="matrix(1 0 0 1 -229 -1988 )">
    <path d="M 45.8984375 23.0859375  C 47.5390625 21.9140625  48.90625 20.494791666666664  50 18.828125000000004  C 48.541666666666664 19.47916666666666  46.96614583333334 19.921875  45.2734375 20.15625  C 47.04427083333334 19.11458333333333  48.25520833333334 17.59114583333333  48.90625 15.5859375  C 47.21354166666667 16.57552083333333  45.46875 17.23958333333333  43.671875 17.578125  C 42.083333333333336 15.859374999999998  40.091145833333336 15  37.6953125 15  C 35.4296875 15  33.49609375 15.800781249999998  31.894531250000004 17.40234375  C 30.29296875 19.003906250000004  29.4921875 20.937500000000004  29.4921875 23.203125  C 29.4921875 23.95833333333333  29.55729166666667 24.583333333333332  29.6875 25.078125  C 26.328125 24.89583333333333  23.177083333333336 24.049479166666668  20.234375 22.539062499999996  C 17.291666666666668 21.02864583333333  14.79166666666667 19.01041666666666  12.734375 16.484375000000004  C 11.979166666666668 17.786458333333332  11.6015625 19.166666666666657  11.6015625 20.625  C 11.6015625 23.593749999999996  12.786458333333336 25.872395833333332  15.156250000000002 27.460937499999996  C 13.932291666666668 27.43489583333333  12.630208333333334 27.096354166666668  11.25 26.445312500000004  L 11.25 26.523437499999996  C 11.25 28.4765625  11.901041666666666 30.214843750000004  13.203125 31.738281250000004  C 14.505208333333334 33.26171875000001  16.106770833333336 34.20572916666667  18.0078125 34.5703125  C 17.25260416666667 34.77864583333333  16.588541666666668 34.88281249999999  16.015625 34.88281249999999  C 15.677083333333336 34.88281249999999  15.169270833333336 34.83072916666666  14.4921875 34.72656250000001  C 15.039062500000002 36.36718750000001  16.009114583333332 37.72135416666666  17.40234375 38.7890625  C 18.795572916666668 39.85677083333333  20.37760416666667 40.40364583333333  22.1484375 40.4296875  C 19.127604166666668 42.7734375  15.729166666666668 43.9453125  11.953125 43.9453125  C 11.276041666666668 43.9453125  10.625 43.90624999999999  10 43.828125  C 13.854166666666668 46.27604166666667  18.046875 47.5  22.578125 47.5  C 25.494791666666668 47.5  28.22916666666667 47.03776041666667  30.781250000000004 46.11328125  C 33.333333333333336 45.18880208333333  35.520833333333336 43.951822916666664  37.34375 42.40234375000001  C 39.166666666666664 40.85286458333333  40.735677083333336 39.06901041666666  42.05078125 37.05078124999999  C 43.36588541666667 35.032552083333336  44.34244791666667 32.923177083333336  44.98046875 30.722656249999996  C 45.61848958333334 28.522135416666664  45.9375 26.328125000000004  45.9375 24.140625  C 45.9375 23.671875  45.92447916666667 23.3203125  45.8984375 23.0859375  Z M 56.69921875 3.300781250000002  C 58.89973958333333 5.501302083333329  60 8.151041666666659  60 11.25  L 60 48.75  C 60 51.84895833333333  58.89973958333333 54.49869791666667  56.69921875 56.69921875  C 54.49869791666667 58.89973958333333  51.84895833333334 60  48.75 60  L 11.25 60  C 8.151041666666666 60  5.501302083333334 58.89973958333333  3.30078125 56.69921875  C 1.1002604166666665 54.49869791666667  0 51.84895833333333  0 48.75  L 0 11.25  C 0 8.151041666666659  1.1002604166666665 5.501302083333329  3.30078125 3.300781250000002  C 5.501302083333334 1.100260416666663  8.151041666666666 0  11.25 0  L 48.75 0  C 51.84895833333334 0  54.49869791666667 1.100260416666663  56.69921875 3.300781250000002  Z " fill-rule="nonzero" fill="#000000" stroke="none" transform="matrix(1 0 0 1 229 1988 )" />
  </g>
</svg>