<?xml version="1.0" encoding="utf-8"?>
<svg version="1.1" xmlns:xlink="http://www.w3.org/1999/xlink" width="60px" height="60px" xmlns="http://www.w3.org/2000/svg">
  <g transform="matrix(1 0 0 1 -329 -1988 )">
    <path d="M 36.4453125 34.903100775193806  C 37.4609375 33.64987080103359  38.13802083333334 33.02325581395349  38.4765625 33.02325581395349  C 38.815104166666664 33.02325581395349  40.08463541666667 33.59173126614987  42.28515625 34.72868217054264  C 44.485677083333336 35.865633074935396  45.65104166666667 36.55038759689923  45.78125 36.782945736434115  C 45.833333333333336 36.912144702842376  45.859375 37.10594315245478  45.859375 37.36434108527132  C 45.859375 38.217054263565885  45.63802083333334 39.19896640826873  45.1953125 40.310077519379846  C 44.778645833333336 41.31782945736434  43.854166666666664 42.1640826873385  42.421875 42.848837209302324  C 40.98958333333334 43.53359173126614  39.661458333333336 43.87596899224806  38.4375 43.87596899224806  C 36.95312500000001 43.87596899224806  34.479166666666664 43.07493540051679  31.015625000000004 41.47286821705427  C 28.46354166666667 40.310077519379846  26.25 38.785529715762266  24.375 36.89922480620155  C 22.5 35.01291989664083  20.572916666666668 32.62273901808785  18.59375 29.728682170542637  C 16.71875 26.96382428940568  15.794270833333336 24.457364341085274  15.8203125 22.209302325581394  L 15.8203125 21.89922480620155  C 15.898437500000002 19.547803617571052  16.86197916666667 17.50645994832041  18.7109375 15.77519379844961  C 19.3359375 15.206718346253226  20.013020833333336 14.922480620155037  20.7421875 14.922480620155037  C 20.8984375 14.922480620155037  21.1328125 14.941860465116278  21.4453125 14.980620155038757  C 21.7578125 15.019379844961243  22.005208333333336 15.038759689922479  22.1875 15.038759689922479  C 22.682291666666668 15.038759689922479  23.02734375 15.122739018087852  23.22265625 15.290697674418606  C 23.41796875 15.458656330749353  23.619791666666668 15.813953488372094  23.828125 16.35658914728682  C 24.036458333333332 16.873385012919893  24.466145833333336 18.010335917312656  25.1171875 19.76744186046512  C 25.76822916666667 21.52454780361757  26.09375 22.493540051679584  26.09375 22.674418604651162  C 26.09375 23.21705426356589  25.64453125 23.959948320413435  24.74609375 24.9031007751938  C 23.84765625 25.846253229974153  23.3984375 26.447028423772608  23.3984375 26.70542635658915  C 23.3984375 26.886304909560724  23.46354166666667 27.080103359173123  23.59375 27.286821705426355  C 24.47916666666667 29.17312661498708  25.80729166666667 30.943152454780357  27.578125 32.596899224806194  C 29.036458333333336 33.96640826873385  31.00260416666667 35.27131782945737  33.4765625 36.51162790697674  C 33.7890625 36.69250645994831  34.075520833333336 36.782945736434115  34.3359375 36.782945736434115  C 34.72656250000001 36.782945736434115  35.42968750000001 36.156330749354  36.4453125 34.903100775193806  Z M 17.0703125 49.53488372093023  C 21.184895833333336 52.22222222222222  25.67708333333333 53.565891472868216  30.546875000000004 53.565891472868216  C 33.85416666666667 53.565891472868216  37.02473958333334 52.91989664082686  40.05859375 51.627906976744185  C 43.092447916666664 50.3359173126615  45.703125 48.604651162790695  47.890625 46.434108527131784  C 50.078125 44.26356589147287  51.822916666666664 41.673126614987076  53.125 38.662790697674424  C 54.42708333333334 35.65245478036175  55.078125 32.506459948320405  55.078125 29.22480620155039  C 55.078125 25.94315245478036  54.42708333333334 22.797157622739014  53.125 19.786821705426355  C 51.822916666666664 16.776485788113693  50.078125 14.186046511627906  47.890625 12.015503875968992  C 45.703125 9.844961240310077  43.092447916666664 8.113695090439272  40.05859375 6.821705426356591  C 37.02473958333334 5.529715762273895  33.85416666666667 4.88372093023256  30.546875000000004 4.88372093023256  C 27.239583333333336 4.88372093023256  24.06901041666667 5.529715762273895  21.03515625 6.821705426356591  C 18.001302083333332 8.113695090439272  15.390625000000002 9.844961240310077  13.203125 12.015503875968992  C 11.015625 14.186046511627906  9.270833333333334 16.776485788113693  7.96875 19.786821705426355  C 6.666666666666667 22.797157622739014  6.015625 25.94315245478036  6.015625 29.22480620155039  C 6.015625 34.4702842377261  7.578125000000001 39.224806201550386  10.703125 43.48837209302325  L 7.6171875 52.51937984496124  L 17.0703125 49.53488372093023  Z M 19.12109375 2.3255813953488347  C 22.75390625 0.7751937984496093  26.5625 0  30.546875000000004 0  C 34.53125 0  38.33984375 0.7751937984496093  41.97265625 2.3255813953488347  C 45.60546875 3.87596899224806  48.73697916666667 5.956072351421184  51.3671875 8.565891472868215  C 53.99739583333334 11.175710594315245  56.09375 14.282945736434112  57.65625 17.88759689922481  C 59.21875 21.4922480620155  60 25.27131782945736  60 29.22480620155039  C 60 33.178294573643406  59.21875 36.957364341085274  57.65625 40.56201550387597  C 56.09375 44.16666666666667  53.99739583333334 47.273901808785524  51.3671875 49.88372093023256  C 48.73697916666667 52.49354005167958  45.60546875 54.57364341085272  41.97265625 56.12403100775194  C 38.33984375 57.674418604651166  34.53125 58.44961240310077  30.546875000000004 58.44961240310077  C 25.46875 58.44961240310077  20.716145833333336 57.23514211886305  16.2890625 54.8062015503876  L 0 60  L 5.3125 44.30232558139535  C 2.5 39.702842377260986  1.09375 34.67700258397933  1.09375 29.22480620155039  C 1.09375 25.27131782945736  1.875 21.4922480620155  3.4375 17.88759689922481  C 5 14.282945736434112  7.096354166666668 11.175710594315245  9.7265625 8.565891472868215  C 12.356770833333336 5.956072351421184  15.488281249999998 3.87596899224806  19.12109375 2.3255813953488347  Z " fill-rule="nonzero" fill="#000000" stroke="none" transform="matrix(1 0 0 1 329 1988 )" />
  </g>
</svg>