<?xml version="1.0" encoding="utf-8"?>
<svg version="1.1" xmlns:xlink="http://www.w3.org/1999/xlink" width="60px" height="60px" xmlns="http://www.w3.org/2000/svg">
  <g transform="matrix(1 0 0 1 -29 -1988 )">
    <path d="M 11.25 0  L 48.75 0  C 51.84895833333334 0  54.49869791666667 1.100260416666663  56.69921875 3.300781250000002  C 58.89973958333333 5.501302083333329  60 8.151041666666659  60 11.25  L 60 48.75  C 60 51.84895833333333  58.89973958333333 54.49869791666667  56.69921875 56.69921875  C 54.49869791666667 58.89973958333333  51.84895833333334 60  48.75 60  L 41 60  L 41 36.75781249999999  L 49.1796875 36.75781249999999  L 50.3515625 27.695312499999996  L 41.40625 27.695312499999996  L 41.40625 21.9140625  C 41.40625 20.455729166666657  41.71223958333334 19.36197916666666  42.32421875 18.6328125  C 42.93619791666667 17.903645833333332  44.12760416666667 17.539062500000004  45.8984375 17.539062500000004  L 50.6640625 17.499999999999996  L 50.6640625 9.414062499999998  C 49.0234375 9.179687499999998  46.70572916666667 9.062499999999998  43.7109375 9.062499999999998  C 40.16927083333334 9.062499999999998  37.337239583333336 10.10416666666666  35.21484375 12.1875  C 33.09244791666667 14.270833333333332  32.03125 17.213541666666664  32.03125 21.015624999999996  L 32.03125 27.695312499999996  L 24.21875 27.695312499999996  L 24.21875 36.75781249999999  L 32 36.75781249999999  L 32 60  L 11.25 60  C 8.151041666666666 60  5.501302083333334 58.89973958333333  3.30078125 56.69921875  C 1.1002604166666665 54.49869791666667  0 51.84895833333333  0 48.75  L 0 11.25  C 0 8.151041666666659  1.1002604166666665 5.501302083333329  3.30078125 3.300781250000002  C 5.501302083333334 1.100260416666663  8.151041666666666 0  11.25 0  Z " fill-rule="nonzero" fill="#000000" stroke="none" transform="matrix(1 0 0 1 29 1988 )" />
  </g>
</svg>