<?xml version="1.0" encoding="utf-8"?>
<svg version="1.1" xmlns:xlink="http://www.w3.org/1999/xlink" width="60px" height="60px" xmlns="http://www.w3.org/2000/svg">
  <g transform="matrix(1 0 0 1 -129 -1988 )">
    <path d="M 37.098214285714285 45.03348214285714  C 38.526785714285715 45.83705357142857  39.43080357142857 45.41294642857143  39.81026785714286 43.761160714285715  L 44.73214285714286 20.558035714285715  C 44.933035714285715 19.57589285714285  44.815848214285715 18.87276785714285  44.38058035714286 18.448660714285715  C 43.9453125 18.02455357142857  43.370535714285715 17.946428571428573  42.65625 18.214285714285715  L 13.727678571428571 29.363839285714285  C 13.080357142857142 29.609374999999996  12.639508928571429 29.888392857142854  12.405133928571429 30.200892857142858  C 12.170758928571429 30.513392857142854  12.142857142857142 30.80915178571429  12.321428571428571 31.088169642857142  C 12.5 31.367187499999996  12.857142857142856 31.584821428571427  13.392857142857144 31.74107142857143  L 20.79241071428571 34.051339285714285  L 37.96875 23.236607142857142  C 38.4375 22.92410714285714  38.79464285714286 22.85714285714285  39.04017857142858 23.035714285714285  C 39.19642857142857 23.147321428571427  39.151785714285715 23.31473214285714  38.90625 23.537946428571427  L 25.01116071428571 36.09375  L 24.47544642857143 43.72767857142857  C 24.988839285714285 43.72767857142857  25.49107142857143 43.482142857142854  25.982142857142858 42.99107142857143  L 29.59821428571429 39.50892857142857  L 37.098214285714285 45.03348214285714  Z M 57.62276785714286 18.348214285714285  C 59.20758928571429 22.053571428571423  60 25.937499999999996  60 30  C 60 34.06249999999999  59.20758928571429 37.94642857142857  57.62276785714286 41.651785714285715  C 56.03794642857144 45.357142857142854  53.90625000000001 48.54910714285714  51.22767857142858 51.22767857142857  C 48.54910714285714 53.90625  45.35714285714286 56.03794642857143  41.651785714285715 57.62276785714286  C 37.94642857142858 59.207589285714285  34.0625 60  30 60  C 25.9375 60  22.05357142857143 59.207589285714285  18.34821428571429 57.62276785714286  C 14.642857142857144 56.03794642857143  11.450892857142856 53.90625  8.772321428571429 51.22767857142857  C 6.09375 48.54910714285714  3.9620535714285716 45.357142857142854  2.377232142857143 41.651785714285715  C 0.7924107142857142 37.94642857142857  0 34.06249999999999  0 30  C 0 25.937499999999996  0.7924107142857142 22.053571428571423  2.377232142857143 18.348214285714285  C 3.9620535714285716 14.642857142857137  6.09375 11.450892857142858  8.772321428571429 8.772321428571425  C 11.450892857142856 6.09375  14.642857142857144 3.96205357142857  18.34821428571429 2.377232142857142  C 22.05357142857143 0.792410714285714  25.9375 0  30 0  C 34.0625 0  37.94642857142858 0.792410714285714  41.651785714285715 2.377232142857142  C 45.35714285714286 3.96205357142857  48.54910714285714 6.09375  51.22767857142858 8.772321428571425  C 53.90625000000001 11.450892857142858  56.03794642857144 14.642857142857137  57.62276785714286 18.348214285714285  Z " fill-rule="nonzero" fill="#000000" stroke="none" transform="matrix(1 0 0 1 129 1988 )" />
  </g>
</svg>